<svg width="41" height="39" viewBox="0 0 41 39" fill="none" xmlns="http://www.w3.org/2000/svg">
<path d="M35.6016 7.49129C34.7291 6.66092 33.6931 6.00221 32.5529 5.5528C31.4126 5.10338 30.1905 4.87207 28.9562 4.87207C27.722 4.87207 26.4998 5.10338 25.3596 5.5528C24.2193 6.00221 23.1834 6.66092 22.3108 7.49129L20.5 9.21379L18.6891 7.49129C16.9267 5.81479 14.5362 4.87294 12.0437 4.87294C9.55121 4.87294 7.16079 5.81479 5.39831 7.49129C3.63584 9.16779 2.64569 11.4416 2.64569 13.8125C2.64569 16.1835 3.63584 18.4573 5.39831 20.1338L20.5 34.4988L35.6016 20.1338C36.4746 19.3038 37.1671 18.3184 37.6395 17.2337C38.112 16.1491 38.3552 14.9866 38.3552 13.8125C38.3552 12.6385 38.112 11.476 37.6395 10.3913C37.1671 9.30671 36.4746 8.32127 35.6016 7.49129Z" stroke="#690E0E" stroke-width="4" stroke-linecap="round" stroke-linejoin="round"/>
</svg>
