<svg width="38" height="38" viewBox="0 0 38 38" fill="none" xmlns="http://www.w3.org/2000/svg">
<path d="M4.75 9.50008L9.5 3.16675H28.5L33.25 9.50008M4.75 9.50008V31.6667C4.75 32.5066 5.08363 33.3121 5.6775 33.9059C6.27136 34.4998 7.07681 34.8334 7.91667 34.8334H30.0833C30.9232 34.8334 31.7286 34.4998 32.3225 33.9059C32.9164 33.3121 33.25 32.5066 33.25 31.6667V9.50008M4.75 9.50008H33.25M25.3333 15.8334C25.3333 17.5131 24.6661 19.124 23.4783 20.3118C22.2906 21.4995 20.6797 22.1667 19 22.1667C17.3203 22.1667 15.7094 21.4995 14.5217 20.3118C13.3339 19.124 12.6667 17.5131 12.6667 15.8334" stroke="#690E0E" stroke-width="4" stroke-linecap="round" stroke-linejoin="round"/>
</svg>
